<svg id="visual" viewBox="0 0 900 600" width="900" height="600" xmlns="http://www.w3.org/2000/svg" xmlns:xlink="http://www.w3.org/1999/xlink" version="1.1"><path d="M242 0L246.3 6.3C250.7 12.7 259.3 25.3 245.8 37.8C232.3 50.3 196.7 62.7 202 75.2C207.3 87.7 253.7 100.3 264.5 112.8C275.3 125.3 250.7 137.7 221.2 150.2C191.7 162.7 157.3 175.3 140 187.8C122.7 200.3 122.3 212.7 137.3 225.2C152.3 237.7 182.7 250.3 183.2 262.8C183.7 275.3 154.3 287.7 159.2 300.2C164 312.7 203 325.3 206.3 337.8C209.7 350.3 177.3 362.7 175.3 375.2C173.3 387.7 201.7 400.3 213.7 412.8C225.7 425.3 221.3 437.7 205.3 450.2C189.3 462.7 161.7 475.3 174 487.8C186.3 500.3 238.7 512.7 247.5 525.2C256.3 537.7 221.7 550.3 229 562.8C236.3 575.3 285.7 587.7 310.3 593.8L335 600L0 600L0 593.8C0 587.7 0 575.3 0 562.8C0 550.3 0 537.7 0 525.2C0 512.7 0 500.3 0 487.8C0 475.3 0 462.7 0 450.2C0 437.7 0 425.3 0 412.8C0 400.3 0 387.7 0 375.2C0 362.7 0 350.3 0 337.8C0 325.3 0 312.7 0 300.2C0 287.7 0 275.3 0 262.8C0 250.3 0 237.7 0 225.2C0 212.7 0 200.3 0 187.8C0 175.3 0 162.7 0 150.2C0 137.7 0 125.3 0 112.8C0 100.3 0 87.7 0 75.2C0 62.7 0 50.3 0 37.8C0 25.3 0 12.7 0 6.3L0 0Z" fill="#0066FF" stroke-linecap="round" stroke-linejoin="miter"></path></svg>